<svg width="80" height="80" viewBox="0 0 80 80" fill="none" xmlns="http://www.w3.org/2000/svg">
<path d="M66.2353 71.3897C65.7337 71.3897 65.2241 71.3305 64.7161 71.2065C61.2817 70.3697 59.1761 66.9073 60.0121 63.4729C60.3001 62.2921 60.7289 57.8569 60.6545 50.9809C60.5833 44.1737 60.0737 39.7953 59.7489 38.5129C58.8801 35.0865 60.9537 31.6049 64.3801 30.7361C67.8081 29.8673 71.2881 31.9417 72.1569 35.3673C73.2561 39.7033 73.4273 48.3105 73.4537 50.8449C73.4817 53.4337 73.4921 62.2201 72.4489 66.5025C71.7361 69.4281 69.1177 71.3897 66.2353 71.3897ZM19.144 29.0945C18.7704 29.0945 18.4184 29.0849 18.092 29.0641C15.0056 28.8681 12.6624 26.2073 12.8576 23.1209C13.0536 20.0337 15.72 17.6897 18.8008 17.8865C19.928 17.9569 24.0144 17.6361 30.2048 16.4689C36.348 15.3145 40.2248 14.1513 41.3336 13.6505C44.1512 12.3769 47.4688 13.6297 48.7425 16.4489C50.0161 19.2681 48.7625 22.5841 45.9448 23.8577C42.2512 25.5257 34.5488 27.0489 32.276 27.4753C30.1504 27.8769 23.3384 29.0945 19.144 29.0945ZM14.5448 72.8569C11.448 72.8569 8.72645 70.6049 8.22965 67.4497C7.68085 63.9577 10.0672 60.6825 13.5584 60.1337C15.0752 59.8953 20.4856 57.2625 27.5256 50.6473C34.216 44.3705 37.42 39.1329 37.8688 37.3057C38.7112 33.8729 42.1768 31.7745 45.6096 32.6153C49.0424 33.4577 51.1424 36.9233 50.3 40.3561C49.0072 45.6241 43.7688 52.9601 36.2864 59.9785C33.4304 62.6625 23.48 71.5313 15.5448 72.7785C15.2096 72.8313 14.8744 72.8569 14.5448 72.8569Z" fill="#8ECB6E"/>
<path d="M46.2009 26.2417C45.5881 26.2417 45.0137 26.3905 44.5305 26.6713C42.7681 27.5553 41.1081 27.9193 39.1881 28.3393C34.4305 29.3809 28.5089 30.6769 18.4321 40.7537C5.24012 53.9457 6.29772 63.6145 6.85132 66.0625C6.57692 67.7985 7.07532 68.5369 7.49452 68.9473C7.95372 69.3993 8.57932 69.6297 9.35132 69.6297C9.68812 69.6297 10.0425 69.5857 10.3273 69.5393C10.8977 69.6705 11.8489 69.8265 13.1505 69.8265C17.1113 69.8265 25.3009 68.2849 35.6305 57.9569C45.7073 47.8785 47.0041 41.9569 48.0457 37.1993C48.4649 35.2793 48.8289 33.6177 49.7137 31.8561C50.6337 30.2801 49.9249 28.1969 49.0593 27.3337C48.4097 26.6809 47.2601 26.2417 46.2009 26.2417ZM45.9617 30.4241C45.3273 31.7641 44.9257 33.0521 44.6089 34.3057C44.0977 34.2241 43.5353 33.9041 43.0049 33.3729C42.4777 32.8441 42.1553 32.2865 42.0713 31.7793C43.3273 31.4617 44.6185 31.0593 45.9617 30.4241ZM32.8025 55.1289C23.4929 64.4361 16.4937 65.8265 13.1505 65.8265C11.8097 65.8265 11.0633 65.6001 11.0633 65.6001H11.0617C10.9913 65.5753 10.9209 65.5545 10.8489 65.5385C10.8329 65.4673 10.8113 65.3961 10.7881 65.3265C10.7585 65.2433 8.22092 56.6217 21.2601 43.5817C30.2945 34.5481 35.3377 33.2809 39.7321 32.3161C39.9225 33.2689 40.4521 34.2137 41.3065 35.0681C42.1633 35.9265 43.1121 36.4593 44.0705 36.6497C43.1049 41.0457 41.8409 46.0889 32.8025 55.1289Z" fill="#22331A"/>
<path d="M29.5223 43.8065C30.0231 43.3705 30.0735 42.6129 29.6391 42.1137C29.2031 41.6129 28.4455 41.5609 27.9463 41.9969C26.6159 43.1561 25.1487 44.5369 23.5847 46.1017C19.8159 49.8697 17.0567 53.2961 15.3815 56.2849C15.0575 56.8633 15.2631 57.5945 15.8407 57.9185C16.0271 58.0225 16.2279 58.0713 16.4271 58.0713C16.8463 58.0713 17.2543 57.8505 17.4751 57.4577C19.0423 54.6609 21.6687 51.4097 25.2815 47.7977C26.8071 46.2729 28.2351 44.9305 29.5223 43.8065ZM32.3287 41.2601C32.5679 41.2601 32.8071 41.1897 33.0159 41.0433C33.5751 40.6521 34.1207 40.2993 34.6815 39.9657C35.2503 39.6265 35.4375 38.8905 35.0983 38.3209C34.7591 37.7505 34.0215 37.5657 33.4535 37.9033C32.8415 38.2665 32.2487 38.6505 31.6399 39.0761C31.0975 39.4561 30.9647 40.2041 31.3439 40.7473C31.5791 41.0809 31.9503 41.2601 32.3287 41.2601ZM38.0631 41.2857C37.4943 40.9481 36.7583 41.1353 36.4191 41.7049C35.3519 43.5009 33.4975 46.1929 28.5879 51.1057C24.9735 54.7185 21.7239 57.3449 18.9271 58.9113C18.3495 59.2345 18.1439 59.9657 18.4679 60.5449C18.6863 60.9369 19.0943 61.1585 19.5151 61.1585C19.7135 61.1585 19.9151 61.1089 20.1015 61.0057C23.0895 59.3313 26.5167 56.5721 30.2847 52.8033C35.3831 47.7025 37.3439 44.8481 38.4831 42.9305C38.8207 42.3609 38.6351 41.6249 38.0631 41.2857ZM63.1007 24.9609C62.4103 24.0385 61.6679 23.5889 60.8271 23.5889C60.0007 23.5953 59.2679 24.0489 58.5991 24.9729C56.7183 26.2033 50.7535 31.2737 50.7535 46.0601C50.7535 57.5449 53.3991 61.6713 55.5239 64.9865C56.3519 66.2793 57.0695 67.3985 57.5471 68.8369C57.9775 70.4513 59.7239 71.3097 60.8519 71.3097H60.8623C61.9983 71.3097 63.7447 70.4513 64.1727 68.8361C64.6519 67.3985 65.3687 66.2801 66.1967 64.9881C68.3215 61.6721 70.9663 57.5465 70.9663 46.0617C70.9663 31.2257 64.9615 26.1705 63.1007 24.9609ZM60.8599 66.3193C60.4679 65.4241 60.0159 64.6345 59.5535 63.8817C59.8423 63.6561 60.2991 63.5273 60.8663 63.5273C61.4287 63.5281 61.8823 63.6545 62.1719 63.8761C61.7071 64.6297 61.2535 65.4209 60.8599 66.3193ZM63.4535 61.8401C62.7663 61.3785 61.8847 61.1273 60.8663 61.1265C59.8431 61.1265 58.9591 61.3785 58.2711 61.8441C56.5119 58.9977 54.7543 55.2825 54.7543 46.0601C54.7543 32.0953 60.4799 28.4937 60.8607 28.2689C61.2639 28.4985 66.9671 32.0425 66.9671 46.0617C66.9663 55.2785 65.2119 58.9945 63.4535 61.8401Z" fill="#22331A"/>
<path d="M63.7552 35.5169C63.5768 34.8793 62.9152 34.5073 62.2744 34.6881C61.6368 34.8681 61.2656 35.5305 61.4456 36.1689C62.1328 38.6081 62.4808 41.9001 62.4808 45.9537C62.4808 51.4665 62.0128 54.0097 61.6048 55.6105C61.4408 56.2529 61.8288 56.9057 62.4704 57.0689C62.5704 57.0945 62.6704 57.1065 62.7672 57.1065C63.304 57.1065 63.7904 56.7457 63.9296 56.2025C64.3728 54.4665 64.88 51.7329 64.88 45.9529C64.8816 41.6793 64.5024 38.1681 63.7552 35.5169ZM59.4448 34.6881C58.812 34.5065 58.144 34.8793 57.964 35.5169C57.2168 38.1649 56.8384 41.6753 56.8384 45.9537C56.8384 51.7305 57.3464 54.4657 57.7896 56.2033C57.928 56.7465 58.4144 57.1073 58.9512 57.1073C59.0488 57.1073 59.1488 57.0953 59.248 57.0697C59.8896 56.9065 60.2784 56.2529 60.1144 55.6113C59.7064 54.0089 59.2376 51.4641 59.2376 45.9545C59.2376 41.8969 59.5864 38.6041 60.272 36.1697C60.4536 35.5313 60.0824 34.8673 59.4448 34.6881ZM9.42077 23.3393C10.7368 23.5505 11.8208 24.0169 13.0712 24.5553C15.3184 25.5225 18.1144 26.7257 23.1112 26.7257C25.336 26.7257 27.8 26.4985 30.6424 26.0297C43.7688 23.8649 47.4672 17.8105 48.3216 15.8961C49.0688 15.1097 49.3696 14.3353 49.2368 13.5177C49.096 12.7353 48.568 12.1169 47.6256 11.6361C46.46 10.3465 42.716 7.14331 34.2488 7.14331C32.1896 7.14331 29.9616 7.33851 27.6288 7.72411C17.3944 9.41131 14.1024 12.3777 11.4568 14.7617C10.4448 15.6737 9.56797 16.4625 8.38877 17.0841C6.93517 17.7449 6.39597 19.5241 6.57117 20.5841C6.74317 21.6609 7.82157 23.1801 9.42077 23.3393ZM28.28 11.6705C30.3992 11.3201 32.4072 11.1433 34.2496 11.1433C41.4464 11.1433 44.1696 13.7689 44.6584 14.3153C44.3512 15.0289 42.3512 18.8409 34.356 21.1169L34.1968 19.9841C34.1496 19.6553 33.8456 19.4201 33.5192 19.4737C33.1904 19.5201 32.9624 19.8233 33.0088 20.1513L33.1888 21.4289C32.32 21.6441 31.384 21.8401 30.3824 22.0137L30.1864 19.7097C30.1584 19.3793 29.8672 19.1297 29.5368 19.1625C29.2072 19.1905 28.9624 19.4809 28.9904 19.8113L29.1944 22.2009C28.204 22.3505 27.2432 22.4769 26.3432 22.5609L26.2616 21.3209C26.2408 20.9905 25.956 20.7433 25.624 20.7617C25.2936 20.7825 25.0424 21.0689 25.0648 21.3993L25.1464 22.6497C24.4384 22.6945 23.752 22.7257 23.112 22.7257C19.5544 22.7257 17.448 22.0441 15.5976 21.2809C15.7992 20.6601 15.8464 19.9497 15.7192 19.1793C15.5848 18.3609 15.2736 17.6561 14.8336 17.1113C17.0864 15.1361 20.0712 13.0241 28.28 11.6705ZM13.0296 18.7065C13.176 18.9209 13.2928 19.2105 13.3512 19.5681C13.3992 19.8553 13.4008 20.1185 13.3632 20.3417C12.8288 20.1281 12.2744 19.9257 11.6792 19.7545C12.1664 19.4161 12.6088 19.0633 13.0296 18.7065Z" fill="#22331A"/>
<path d="M20.9504 18.6911C21.0784 18.6911 21.2088 18.6711 21.336 18.6271C22.736 18.1511 24.972 17.5015 29.872 16.6951C32.704 16.2271 35.1712 15.9519 37.2032 15.8767C37.8656 15.8519 38.3832 15.2951 38.3576 14.6327C38.3328 13.9711 37.7544 13.4239 37.1136 13.4783C34.9808 13.5583 32.4128 13.8431 29.4808 14.3271C24.4088 15.1623 22.0504 15.8495 20.564 16.3559C19.936 16.5695 19.6 17.2503 19.8136 17.8775C19.984 18.3767 20.4504 18.6911 20.9504 18.6911Z" fill="#22331A"/>
</svg>
