<svg width="80" height="80" viewBox="0 0 80 80" fill="none" xmlns="http://www.w3.org/2000/svg">
<path d="M76.233 26.8837V33.24C76.232 34.2226 75.8412 35.1648 75.1463 35.8596C74.4515 36.5545 73.5094 36.9452 72.5267 36.9462H52.3455L51.5955 31.4337L50.4705 23.1775H72.5267C73.5094 23.1785 74.4515 23.5693 75.1463 24.2641C75.8412 24.959 76.232 25.9011 76.233 26.8837Z" fill="#CE9961"/>
<path d="M70.1643 23.1775V30.865C70.1664 30.9402 70.1622 31.0155 70.1518 31.09C70.097 31.7886 69.7809 32.441 69.2666 32.917C68.7524 33.3931 68.0776 33.6579 67.3768 33.6587H52.0893L51.7518 31.4275L50.5081 23.1775H70.1643Z" fill="#FCF6F2"/>
<path d="M52.325 36.9463H72.5256C73.5087 36.9465 74.4514 37.3371 75.1466 38.0322C75.8417 38.7273 76.2323 39.6701 76.2325 40.6532V47.0082C76.2323 47.9912 75.8417 48.934 75.1466 49.6291C74.4514 50.3243 73.5087 50.7149 72.5256 50.715H52.5256" fill="#CE9961"/>
<path d="M52.3438 36.9463H70.1669V44.6338C70.1669 45.0004 70.0947 45.3634 69.9543 45.7021C69.814 46.0408 69.6084 46.3485 69.3491 46.6077C69.0899 46.8669 68.7821 47.0725 68.4434 47.2127C68.1046 47.353 67.7416 47.4251 67.375 47.425H52.7144" fill="#FCF6F2"/>
<path d="M52.5268 50.7148H72.5268C73.5099 50.7148 74.4528 51.1054 75.1479 51.8006C75.8431 52.4957 76.2337 53.4386 76.2337 54.4217V60.7761C76.2337 61.7592 75.8431 62.7021 75.1479 63.3973C74.4528 64.0924 73.5099 64.483 72.5268 64.483H50.5093" fill="#CE9961"/>
<path d="M52.5624 50.7148H70.1693V58.4023C70.1692 58.7691 70.0968 59.1323 69.9563 59.4711C69.8158 59.8099 69.61 60.1178 69.3505 60.377C69.0909 60.6362 68.7829 60.8417 68.4439 60.9819C68.105 61.122 67.7417 61.1939 67.3749 61.1936H51.2437" fill="#FCF6F2"/>
<path d="M76.233 30.9275V33.24C76.232 34.2226 75.8412 35.1648 75.1463 35.8596C74.4515 36.5544 73.5094 36.9452 72.5267 36.9462H52.3455L51.5955 31.4337C58.7392 31.3025 65.8892 31.1692 73.0455 31.0337C74.108 31.0087 75.1705 30.99 76.233 30.9275Z" fill="#B28252"/>
<path d="M70.1517 31.0898C70.0969 31.7885 69.7808 32.4408 69.2665 32.9169C68.7523 33.3929 68.0775 33.6578 67.3767 33.6586H52.0892L51.7517 31.4273L70.1517 31.0898Z" fill="#E2D9D5"/>
<path d="M76.233 44.6963V47.0088C76.232 47.9914 75.8412 48.9336 75.1463 49.6284C74.4515 50.3232 73.5094 50.714 72.5267 50.715H52.3455L51.5955 45.2025C58.7392 45.0713 65.8892 44.938 73.0455 44.8025C74.108 44.7775 75.1705 44.7588 76.233 44.6963Z" fill="#B28252"/>
<path d="M70.1517 44.8586C70.0969 45.5573 69.7808 46.2096 69.2665 46.6857C68.7523 47.1617 68.0775 47.4266 67.3767 47.4274H52.0892L51.7517 45.1961L70.1517 44.8586Z" fill="#E2D9D5"/>
<path d="M76.2331 58.4644V60.7769C76.2321 61.7595 75.8413 62.7016 75.1465 63.3965C74.4516 64.0913 73.5095 64.4821 72.5268 64.4831H49.5168L51.2437 58.9706L73.0456 58.5706C74.1081 58.5456 75.1706 58.5269 76.2331 58.4644Z" fill="#B28252"/>
<path d="M70.1519 58.625C70.0971 59.3236 69.781 59.976 69.2668 60.452C68.7525 60.9281 68.0777 61.1929 67.3769 61.1937H50.6538L51.2438 58.9706C57.3751 58.8581 64.0144 58.7394 70.1519 58.625Z" fill="#E2D9D5"/>
<path d="M49.4999 18.7649C50.1937 21.6149 53.6124 36.6087 52.4062 52.4712C52.0661 57.6278 51.1157 62.7259 49.5749 67.6587C49.515 67.8456 49.5008 68.0442 49.5334 68.2377C49.5661 68.4313 49.6446 68.6142 49.7624 68.7712C50.1562 69.3149 50.7937 70.2149 51.3124 71.0837C51.4031 71.2636 51.438 71.4665 51.4124 71.6663C51.3868 71.8662 51.302 72.0538 51.1689 72.205C51.0358 72.3563 50.8605 72.4642 50.6655 72.515C50.4706 72.5658 50.2649 72.5571 50.0749 72.4899C49.1322 72.2373 48.2204 71.881 47.3562 71.4274C46.9968 71.2491 46.5821 71.2177 46.1999 71.3399C40.5561 72.9677 34.7112 73.7925 28.8374 73.7899C22.964 73.7862 17.12 72.9616 11.4749 71.3399C11.0907 71.2176 10.674 71.249 10.3124 71.4274C9.45031 71.8808 8.54058 72.2371 7.59991 72.4899C7.40989 72.5577 7.2039 72.567 7.00858 72.5164C6.81326 72.4659 6.6376 72.3579 6.50432 72.2064C6.37103 72.055 6.28626 71.867 6.26096 71.6668C6.23566 71.4667 6.27101 71.2635 6.36241 71.0837C6.87491 70.2149 7.51241 69.3149 7.91241 68.7712C8.02939 68.6138 8.1069 68.4306 8.13844 68.237C8.16998 68.0434 8.15462 67.8451 8.09366 67.6587C6.52625 62.6203 5.56735 57.4124 5.23741 52.1462C4.10616 36.4024 7.48116 21.5962 8.16866 18.7649C8.20187 18.6171 8.18845 18.4626 8.13025 18.3227C8.07205 18.1828 7.97193 18.0644 7.84366 17.9837C5.44366 16.3212 4.64366 14.7649 5.06866 13.9712C5.15439 13.839 5.27523 13.7334 5.41763 13.666C5.56003 13.5987 5.71838 13.5723 5.87491 13.5899C6.90852 13.74 7.88822 14.1461 8.72491 14.7712C8.87351 14.8752 9.05077 14.9305 9.23216 14.9294C9.41355 14.9283 9.59011 14.8708 9.73741 14.7649C14.6999 11.0712 28.8374 10.9087 28.8374 10.9087C28.8374 10.9087 42.9749 11.0712 47.9312 14.7649C48.0785 14.8708 48.255 14.9283 48.4364 14.9294C48.6178 14.9305 48.7951 14.8752 48.9437 14.7712C49.7821 14.145 50.7641 13.7388 51.7999 13.5899C51.9556 13.5724 52.113 13.5988 52.2544 13.6662C52.3958 13.7336 52.5155 13.8392 52.5999 13.9712C53.0312 14.7649 52.2312 16.3212 49.8249 17.9837C49.6977 18.0654 49.5984 18.1839 49.5404 18.3235C49.4823 18.4631 49.4682 18.6171 49.4999 18.7649Z" fill="#CE9961"/>
<path d="M43.7204 23.1712V65.5837C43.7203 65.9516 43.574 66.3045 43.3138 66.5646C43.0537 66.8248 42.7009 66.971 42.3329 66.9712H15.3392C14.9716 66.9699 14.6194 66.8233 14.3595 66.5634C14.0996 66.3034 13.953 65.9513 13.9517 65.5837V23.1712C13.9518 22.8033 14.0981 22.4504 14.3582 22.1903C14.6184 21.9301 14.9712 21.7839 15.3392 21.7837H42.3329C42.5152 21.7833 42.6958 21.8189 42.8644 21.8885C43.0329 21.9581 43.186 22.0602 43.3149 22.1892C43.4439 22.3181 43.5461 22.4712 43.6156 22.6397C43.6852 22.8083 43.7208 22.9889 43.7204 23.1712Z" fill="#FCF6F2"/>
<path d="M28.84 35.3443C28.84 35.3443 28.5831 31.0862 33.4469 29.9643C38.3106 28.8424 33.8987 36.5093 28.84 35.3443Z" fill="#0CBC0C"/>
<path d="M28.8348 35.3443C28.8348 35.3443 29.0917 31.0862 24.2279 29.9643C19.3642 28.8424 23.776 36.5093 28.8348 35.3443Z" fill="#0BA00B"/>
<path d="M28.8373 41.8037C24.4448 41.8037 20.8835 44.7668 20.8835 48.4225H36.791C36.791 44.7668 33.2298 41.8037 28.8373 41.8037Z" fill="#D58783"/>
<path d="M51.3125 71.0837C51.4033 71.2636 51.4381 71.4665 51.4125 71.6664C51.3869 71.8662 51.3022 72.0538 51.1691 72.2051C51.036 72.3563 50.8606 72.4643 50.6657 72.5151C50.4707 72.5658 50.265 72.5571 50.0751 72.49C49.1323 72.2374 48.2205 71.881 47.3563 71.4275C46.9969 71.2491 46.5822 71.2177 46.2001 71.34C40.5563 72.9678 34.7114 73.7926 28.8375 73.79C22.9642 73.7863 17.1201 72.9616 11.475 71.34C11.0908 71.2177 10.6741 71.2491 10.3125 71.4275C9.45045 71.8809 8.54072 72.2372 7.60005 72.49C7.41003 72.5578 7.20404 72.567 7.00872 72.5165C6.8134 72.4659 6.63774 72.358 6.50445 72.2065C6.37117 72.055 6.2864 71.8671 6.2611 71.6669C6.2358 71.4667 6.27114 71.2636 6.36255 71.0837C6.87505 70.215 7.51255 69.315 7.91255 68.7712C8.02953 68.6138 8.10704 68.4306 8.13857 68.2371C8.17011 68.0435 8.15476 67.8452 8.0938 67.6587C6.52639 62.6203 5.56749 57.4125 5.23755 52.1462C5.2813 52.1775 5.32505 52.2087 5.36255 52.2337C6.28755 52.8525 7.24172 53.4275 8.22505 53.9587C12.3032 56.1636 16.7639 57.572 21.3688 58.1087C23.953 58.4108 26.5626 58.4254 29.15 58.1525C30.4625 58.015 31.7625 57.8025 33.0625 57.5712C39.636 56.3892 46.1045 54.6838 52.4063 52.4712C52.0662 57.6279 51.1158 62.7259 49.5751 67.6587C49.5152 67.8457 49.501 68.0442 49.5336 68.2378C49.5662 68.4313 49.6447 68.6143 49.7626 68.7712C50.1582 69.3125 50.7957 70.215 51.3125 71.0837Z" fill="#B28252"/>
<path d="M43.7204 55.1775V65.5837C43.7202 65.9517 43.574 66.3045 43.3138 66.5647C43.0537 66.8248 42.7008 66.9711 42.3329 66.9712H15.3392C14.9716 66.9699 14.6194 66.8233 14.3595 66.5634C14.0996 66.3035 13.953 65.9513 13.9517 65.5837V56.4462C16.3598 57.2579 18.8462 57.8151 21.3704 58.1087C23.9546 58.4108 26.5643 58.4254 29.1517 58.1525C30.4642 58.015 31.7642 57.8025 33.0642 57.5712C36.6517 56.9275 40.2037 56.1296 43.7204 55.1775Z" fill="#E2D9D5"/>
<path d="M20.2568 48.4487C20.2568 48.6145 20.3227 48.7734 20.4399 48.8906C20.5571 49.0078 20.7161 49.0737 20.8818 49.0737H36.7887C36.9545 49.0737 37.1134 49.0078 37.2307 48.8906C37.3479 48.7734 37.4137 48.6145 37.4137 48.4487C37.4137 44.6312 33.8975 41.5024 29.4581 41.2312V36.0912C29.6043 36.1031 29.7512 36.1149 29.8956 36.1149C30.9903 36.0643 32.0579 35.7581 33.013 35.2208C33.968 34.6834 34.784 33.9299 35.3956 33.0206C36.2081 31.8331 36.3956 30.6887 35.8956 29.9618C35.5787 29.4974 34.8712 29.0187 33.3 29.3812C30.7325 29.9731 29.4637 31.3868 28.8312 32.6968C28.1993 31.3843 26.93 29.9731 24.3618 29.3843C22.7912 29.0218 22.0837 29.5006 21.7662 29.9649C21.2662 30.6918 21.4575 31.8356 22.2662 33.0237C22.8777 33.9331 23.6937 34.6867 24.6488 35.224C25.6038 35.7614 26.6715 36.0676 27.7662 36.1181C27.9093 36.1181 28.0543 36.1062 28.1993 36.0943V41.2312C23.7706 41.5043 20.2568 44.6324 20.2568 48.4487ZM36.1243 47.8237H21.5468C21.93 44.8112 25.0525 42.4543 28.8356 42.4543C32.6187 42.4543 35.7412 44.8124 36.125 47.8237H36.1243ZM33.585 30.5993C34.3712 30.4181 34.7687 30.5218 34.8681 30.6668C35.0187 30.8881 34.8943 31.5418 34.3681 32.3162C33.4012 33.7331 31.5112 35.0543 29.4843 34.8449C29.5893 33.7943 30.2087 31.3781 33.585 30.5993ZM23.3056 32.3162C22.7762 31.5412 22.6518 30.8881 22.8056 30.6668C22.8681 30.5774 23.0425 30.5024 23.3556 30.5024C23.6028 30.5074 23.8487 30.5399 24.0887 30.5993C27.4637 31.3781 28.0887 33.7949 28.1931 34.8449C26.1625 35.0543 24.2725 33.7331 23.3056 32.3162Z" fill="#414456"/>
<path d="M42.3317 21.1875H15.3386C14.8049 21.1882 14.2932 21.4005 13.9158 21.7779C13.5384 22.1553 13.3261 22.6669 13.3254 23.2006V65.61C13.3261 66.1437 13.5384 66.6554 13.9158 67.0328C14.2932 67.4102 14.8049 67.6225 15.3386 67.6231H42.3317C42.8655 67.6226 43.3772 67.4104 43.7546 67.0329C44.1321 66.6555 44.3443 66.1438 44.3448 65.61V23.1981C44.3437 22.6648 44.1311 22.1537 43.7538 21.7768C43.3764 21.3999 42.865 21.188 42.3317 21.1875ZM43.0948 65.61C43.0945 65.8123 43.014 66.0062 42.8709 66.1492C42.7279 66.2923 42.534 66.3728 42.3317 66.3731H15.3386C15.1363 66.3728 14.9424 66.2923 14.7993 66.1492C14.6563 66.0062 14.5758 65.8123 14.5754 65.61V23.1981C14.5764 22.9963 14.6572 22.803 14.8002 22.6605C14.9432 22.518 15.1367 22.4378 15.3386 22.4375H42.3317C42.534 22.4378 42.7279 22.5183 42.8709 22.6614C43.014 22.8044 43.0945 22.9983 43.0948 23.2006V65.61Z" fill="#414456"/>
<path d="M76.8555 33.2656V26.9106C76.854 25.7622 76.3971 24.6613 75.5851 23.8494C74.773 23.0374 73.672 22.5807 72.5237 22.5794H50.9705C50.6143 20.79 50.2999 19.4331 50.1068 18.6419C50.0968 18.6031 50.1374 18.555 50.1811 18.5244C52.6811 16.79 53.823 14.9406 53.1536 13.6987C53.012 13.4613 52.8062 13.2687 52.56 13.143C52.3138 13.0173 52.0371 12.9636 51.7618 12.9881C50.6105 13.1388 49.5176 13.5845 48.5893 14.2819C48.5477 14.3107 48.4985 14.3264 48.448 14.3271C48.3974 14.3278 48.3478 14.3133 48.3055 14.2856C43.243 10.5144 29.4305 10.315 28.8287 10.3081C28.243 10.315 14.4299 10.5144 9.36615 14.2856C9.32405 14.3138 9.27437 14.3286 9.22369 14.3279C9.17302 14.3272 9.12374 14.3112 9.0824 14.2819C8.1542 13.5846 7.06161 13.1389 5.91053 12.9881C5.63501 12.9617 5.35769 13.0145 5.11114 13.1403C4.86459 13.2661 4.65905 13.4596 4.51865 13.6981C3.84865 14.9406 4.9874 16.79 7.49053 18.5244C7.5349 18.555 7.5749 18.6031 7.5649 18.6431C6.4149 23.34 1.00928 47.7819 7.4999 67.875C7.53056 67.9681 7.5381 68.0673 7.52188 68.164C7.50565 68.2607 7.46615 68.352 7.40678 68.43C6.96928 69.0287 6.34428 69.9231 5.82365 70.7906C5.66459 71.0515 5.58828 71.3545 5.6048 71.6597C5.62131 71.9648 5.72986 72.2578 5.91615 72.5C6.12671 72.7747 6.41456 72.9802 6.74275 73.0901C7.07094 73.2 7.4245 73.2093 7.75803 73.1169C8.74521 72.8545 9.69976 72.482 10.6037 72.0062C10.8153 71.9039 11.0583 71.8875 11.2818 71.9606C16.8846 73.5776 22.6841 74.4126 28.5155 74.4419H29.1455C34.9805 74.413 40.7835 73.578 46.3899 71.9606C46.6131 71.887 46.8561 71.9033 47.0674 72.0062C47.9712 72.4821 48.9258 72.8546 49.913 73.1169C50.2465 73.2096 50.6002 73.2004 50.9284 73.0905C51.2567 72.9805 51.5445 72.7749 51.7549 72.5C51.942 72.2577 52.0511 71.9642 52.0677 71.6585C52.0843 71.3528 52.0077 71.0493 51.848 70.7881C51.3305 69.92 50.7018 69.0256 50.2643 68.4262C50.2052 68.3483 50.1659 68.2573 50.1496 68.1609C50.1332 68.0644 50.1404 67.9655 50.1705 67.8725C50.463 66.9675 50.723 66.0519 50.9687 65.1312H72.5237C73.6721 65.1299 74.7732 64.6731 75.5853 63.861C76.3974 63.0489 76.8542 61.9478 76.8555 60.7994V54.4475C76.8546 53.7008 76.6606 52.967 76.2923 52.3175C75.924 51.668 75.394 51.1247 74.7536 50.7406C75.3939 50.3564 75.9239 49.8132 76.2922 49.1636C76.6604 48.5141 76.8545 47.7804 76.8555 47.0337V40.6794C76.8546 39.9327 76.6606 39.1989 76.2923 38.5494C75.924 37.8998 75.394 37.3566 74.7536 36.9725C75.3939 36.5883 75.9239 36.045 76.2922 35.3955C76.6604 34.746 76.8545 34.0123 76.8555 33.2656ZM60.8493 23.8281L60.8293 29.9919C60.8293 30.1576 60.8951 30.3166 61.0123 30.4338C61.1295 30.551 61.2885 30.6169 61.4543 30.6169C61.62 30.6169 61.779 30.551 61.8962 30.4338C62.0134 30.3166 62.0793 30.1576 62.0793 29.9919L62.0993 23.8237H64.8493L64.8305 27.9044C64.8301 27.9867 64.846 28.0683 64.8772 28.1445C64.9084 28.2207 64.9544 28.29 65.0125 28.3483C65.0705 28.4067 65.1396 28.453 65.2156 28.4846C65.2917 28.5162 65.3732 28.5325 65.4555 28.5325C65.6213 28.5325 65.7803 28.4666 65.8975 28.3494C66.0147 28.2322 66.0805 28.0732 66.0805 27.9075L66.0993 23.8206H69.5368V30.8831C69.5359 31.4575 69.3074 32.0081 68.9012 32.4142C68.495 32.8203 67.9443 33.0487 67.3699 33.0494H52.5893C52.1893 29.4619 51.6811 26.3125 51.2143 23.8212L60.8493 23.8281ZM61.4524 44.3487C61.6182 44.3487 61.7771 44.2829 61.8943 44.1657C62.0116 44.0485 62.0774 43.8895 62.0774 43.7237L62.0974 37.5944H64.8474L64.8286 41.6369C64.8282 41.7192 64.8441 41.8008 64.8753 41.877C64.9066 41.9532 64.9525 42.0225 65.0106 42.0808C65.0687 42.1392 65.1377 42.1855 65.2137 42.2171C65.2898 42.2487 65.3713 42.265 65.4536 42.265C65.6194 42.265 65.7784 42.1991 65.8956 42.0819C66.0128 41.9647 66.0786 41.8057 66.0786 41.64L66.0974 37.5912H69.5349V44.6537C69.5341 45.2281 69.3055 45.7787 68.8993 46.1848C68.4931 46.5909 67.9424 46.8193 67.368 46.82H53.2986C53.3411 43.6162 53.2249 40.5075 53.0112 37.5919H60.8493L60.8293 43.7169C60.8282 43.7995 60.8435 43.8815 60.8743 43.9581C60.9051 44.0347 60.9508 44.1045 61.0088 44.1634C61.0667 44.2223 61.1358 44.2691 61.2119 44.3011C61.2881 44.3331 61.3698 44.3497 61.4524 44.35V44.3487ZM61.4524 58.1175C61.6182 58.1175 61.7771 58.0516 61.8943 57.9344C62.0116 57.8172 62.0774 57.6582 62.0774 57.4925L62.0974 51.3631H64.8474L64.8286 55.4062C64.8286 55.572 64.8945 55.731 65.0117 55.8482C65.1289 55.9654 65.2879 56.0312 65.4536 56.0312C65.6194 56.0312 65.7784 55.9654 65.8956 55.8482C66.0128 55.731 66.0786 55.572 66.0786 55.4062L66.0974 51.3575H69.5349V58.42C69.5362 58.9945 69.3095 59.5461 68.9045 59.9537C68.4996 60.3612 67.9494 60.5914 67.3749 60.5937H51.9999C52.5625 57.5435 52.9382 54.4617 53.1249 51.3656H60.8499L60.8299 57.4906C60.8295 57.5727 60.8453 57.6541 60.8763 57.7302C60.9074 57.8062 60.9532 57.8754 61.011 57.9337C61.0688 57.992 61.1375 58.0384 61.2133 58.0701C61.289 58.1019 61.3703 58.1184 61.4524 58.1187V58.1175ZM50.7743 71.43C50.8068 71.4781 50.8226 71.5354 50.8193 71.5934C50.816 71.6513 50.7938 71.7065 50.7561 71.7506C50.6944 71.8264 50.6115 71.8822 50.518 71.9107C50.4245 71.9392 50.3247 71.9391 50.2312 71.9106C49.3347 71.6719 48.4678 71.3333 47.6468 70.9012C47.3956 70.7728 47.1215 70.6952 46.8403 70.6731C46.559 70.6511 46.2762 70.6848 46.008 70.7725C40.5236 72.3523 34.8473 73.1671 29.1399 73.1937H28.8318C23.0245 73.1852 17.2464 72.3708 11.663 70.7737C11.3948 70.686 11.1118 70.6522 10.8305 70.6743C10.5491 70.6964 10.2749 70.774 10.0237 70.9025C9.20286 71.3345 8.33619 71.6731 7.4399 71.9119C7.34629 71.9403 7.24636 71.9402 7.15278 71.9117C7.0592 71.8832 6.97618 71.8276 6.91428 71.7519C6.87643 71.7077 6.8542 71.6523 6.85103 71.5942C6.84787 71.5361 6.86395 71.4786 6.89678 71.4306C7.38928 70.605 7.99428 69.7431 8.4149 69.1675C8.59132 68.9304 8.70826 68.6544 8.7559 68.3627C8.80353 68.071 8.78047 67.7722 8.68865 67.4912C2.1674 47.3037 8.0824 21.785 8.77803 18.9431C8.84068 18.6725 8.81906 18.3892 8.71605 18.1312C8.61305 17.8733 8.43359 17.653 8.20178 17.5C5.85303 15.875 5.44428 14.6175 5.6174 14.2956C5.68044 14.2486 5.75952 14.2284 5.8374 14.2394C6.75827 14.3841 7.62957 14.7526 8.3749 15.3125C8.63221 15.4884 8.93754 15.5805 9.24918 15.5764C9.56083 15.5722 9.8636 15.472 10.1162 15.2894C14.8512 11.76 28.703 11.5625 28.828 11.5625C28.968 11.5625 42.8199 11.7631 47.558 15.2919C47.8105 15.4747 48.1133 15.575 48.425 15.5792C48.7367 15.5833 49.042 15.491 49.2993 15.315C50.0437 14.7549 50.9141 14.386 51.8343 14.2406C51.9112 14.2319 51.9888 14.2514 52.0524 14.2956C52.2261 14.6187 51.8174 15.8737 49.4687 17.5012C49.2368 17.6543 49.0574 17.8745 48.9544 18.1325C48.8514 18.3905 48.8297 18.6738 48.8924 18.9444C49.5886 21.7875 55.5037 47.3037 48.9812 67.4944C48.8896 67.7752 48.8668 68.0738 48.9145 68.3653C48.9623 68.6567 49.0792 68.9324 49.2555 69.1694C49.6761 69.7431 50.2811 70.6044 50.7743 71.4306V71.43ZM75.6055 54.4469V60.8019C75.6045 61.6189 75.2795 62.4022 74.7018 62.98C74.124 63.5577 73.3407 63.8827 72.5237 63.8837H51.293C51.4597 63.2071 51.6126 62.5271 51.7518 61.8437H67.3749C68.2806 61.8429 69.1491 61.4828 69.7896 60.8425C70.4302 60.2021 70.7906 59.3339 70.7918 58.4281V51.3656H72.5255C73.3423 51.3671 74.1251 51.6923 74.7024 52.27C75.2798 52.8477 75.6045 53.6308 75.6055 54.4475V54.4469ZM75.6055 40.6787V47.0337C75.6045 47.8508 75.2795 48.6341 74.7018 49.2119C74.124 49.7896 73.3407 50.1146 72.5237 50.1156H53.1961C53.2299 49.4327 53.2553 48.7527 53.2724 48.0756H67.3749C68.2808 48.0748 69.1493 47.7146 69.7899 47.0741C70.4305 46.4337 70.7908 45.5652 70.7918 44.6594V37.5969H72.5255C73.3424 37.5983 74.1253 37.9237 74.7027 38.5015C75.28 39.0793 75.6047 39.8625 75.6055 40.6794V40.6787ZM52.9111 36.3475C52.853 35.6562 52.7911 34.9725 52.7236 34.3075H67.3749C68.2808 34.3067 69.1493 33.9465 69.7899 33.306C70.4305 32.6655 70.7908 31.7971 70.7918 30.8912V23.8287H72.5255C73.3425 23.8296 74.1258 24.1544 74.7036 24.7321C75.2814 25.3097 75.6064 26.093 75.6074 26.91V33.2656C75.6064 34.0827 75.2814 34.866 74.7036 35.4437C74.1259 36.0215 73.3426 36.3465 72.5255 36.3475H52.9111Z" fill="#414456"/>
<path d="M36.7968 52.6581L20.8899 52.6174C20.7241 52.6174 20.5652 52.6833 20.448 52.8005C20.3307 52.9177 20.2649 53.0767 20.2649 53.2424C20.2649 53.4082 20.3307 53.5672 20.448 53.6844C20.5652 53.8016 20.7241 53.8674 20.8899 53.8674L36.7968 53.9081C36.9625 53.9081 37.1215 53.8422 37.2387 53.725C37.3559 53.6078 37.4218 53.4488 37.4218 53.2831C37.4218 53.1173 37.3559 52.9583 37.2387 52.8411C37.1215 52.7239 36.9625 52.6581 36.7968 52.6581ZM33.1793 57.4568L24.4918 57.4349C24.326 57.4349 24.167 57.5008 24.0498 57.618C23.9326 57.7352 23.8668 57.8942 23.8668 58.0599C23.8668 58.2257 23.9326 58.3847 24.0498 58.5019C24.167 58.6191 24.326 58.6849 24.4918 58.6849L33.1793 58.7068C33.345 58.7068 33.504 58.641 33.6212 58.5237C33.7384 58.4065 33.8043 58.2476 33.8043 58.0818C33.8043 57.916 33.7384 57.7571 33.6212 57.6399C33.504 57.5227 33.345 57.4568 33.1793 57.4568Z" fill="#414456"/>
</svg>
