<svg width="135" height="66" viewBox="0 0 135 66" fill="none" xmlns="http://www.w3.org/2000/svg">
<path d="M37.424 48.224C37.112 47.72 36.668 47.336 36.092 47.072C35.516 46.784 34.82 46.64 34.004 46.64C32.468 46.64 31.28 47.144 30.44 48.152C29.6 49.136 29.18 50.492 29.18 52.22C29.18 54.212 29.648 55.7 30.584 56.684C31.52 57.668 32.96 58.16 34.904 58.16C36.752 58.16 38.24 57.416 39.368 55.928H32.996V50.276H45.992V58.268C44.888 60.164 43.364 61.796 41.42 63.164C39.476 64.508 37.016 65.18 34.04 65.18C31.4 65.18 29.096 64.64 27.128 63.56C25.184 62.456 23.684 60.92 22.628 58.952C21.596 56.984 21.08 54.74 21.08 52.22C21.08 49.7 21.596 47.456 22.628 45.488C23.684 43.52 25.184 41.996 27.128 40.916C29.072 39.812 31.352 39.26 33.968 39.26C37.304 39.26 40.016 40.064 42.104 41.672C44.216 43.28 45.464 45.464 45.848 48.224H37.424ZM56.8623 48.44C57.6783 47.264 58.6743 46.328 59.8503 45.632C61.0263 44.912 62.2503 44.552 63.5223 44.552V53.084H61.2543C59.7423 53.084 58.6263 53.348 57.9063 53.876C57.2103 54.404 56.8623 55.34 56.8623 56.684V65H48.8703V44.696H56.8623V48.44ZM85.331 54.668C85.331 55.22 85.295 55.748 85.223 56.252H72.371C72.491 58.004 73.223 58.88 74.567 58.88C75.431 58.88 76.055 58.484 76.439 57.692H84.899C84.611 59.132 83.999 60.428 83.063 61.58C82.151 62.708 80.987 63.608 79.571 64.28C78.179 64.928 76.643 65.252 74.963 65.252C72.947 65.252 71.147 64.832 69.563 63.992C68.003 63.152 66.779 61.952 65.891 60.392C65.027 58.808 64.595 56.96 64.595 54.848C64.595 52.736 65.027 50.9 65.891 49.34C66.779 47.756 68.003 46.544 69.563 45.704C71.147 44.864 72.947 44.444 74.963 44.444C76.979 44.444 78.767 44.864 80.327 45.704C81.911 46.52 83.135 47.696 83.999 49.232C84.887 50.768 85.331 52.58 85.331 54.668ZM77.231 52.76C77.231 52.088 77.015 51.584 76.583 51.248C76.151 50.888 75.611 50.708 74.963 50.708C73.547 50.708 72.719 51.392 72.479 52.76H77.231ZM107.515 54.668C107.515 55.22 107.479 55.748 107.407 56.252H94.5546C94.6746 58.004 95.4066 58.88 96.7506 58.88C97.6146 58.88 98.2386 58.484 98.6226 57.692H107.083C106.795 59.132 106.183 60.428 105.247 61.58C104.335 62.708 103.171 63.608 101.755 64.28C100.363 64.928 98.8266 65.252 97.1466 65.252C95.1306 65.252 93.3306 64.832 91.7466 63.992C90.1866 63.152 88.9626 61.952 88.0746 60.392C87.2106 58.808 86.7786 56.96 86.7786 54.848C86.7786 52.736 87.2106 50.9 88.0746 49.34C88.9626 47.756 90.1866 46.544 91.7466 45.704C93.3306 44.864 95.1306 44.444 97.1466 44.444C99.1626 44.444 100.951 44.864 102.511 45.704C104.095 46.52 105.319 47.696 106.183 49.232C107.071 50.768 107.515 52.58 107.515 54.668ZM99.4146 52.76C99.4146 52.088 99.1986 51.584 98.7666 51.248C98.3346 50.888 97.7946 50.708 97.1466 50.708C95.7306 50.708 94.9026 51.392 94.6626 52.76H99.4146ZM124.262 44.552C126.59 44.552 128.402 45.332 129.698 46.892C131.018 48.452 131.678 50.564 131.678 53.228V65H123.722V54.236C123.722 53.276 123.458 52.52 122.93 51.968C122.426 51.392 121.742 51.104 120.878 51.104C119.99 51.104 119.294 51.392 118.79 51.968C118.286 52.52 118.034 53.276 118.034 54.236V65H110.042V44.696H118.034V47.792C118.658 46.832 119.486 46.052 120.518 45.452C121.574 44.852 122.822 44.552 124.262 44.552Z" fill="#51C159"/>
<path d="M9.10797 15.444C10.428 15.444 11.568 15.72 12.528 16.272C13.488 16.8 14.22 17.532 14.724 18.468V15.696H22.68V35.64C22.68 37.536 22.332 39.264 21.636 40.824C20.94 42.384 19.812 43.632 18.252 44.568C16.716 45.504 14.736 45.972 12.312 45.972C9.04797 45.972 6.45597 45.204 4.53597 43.668C2.63997 42.156 1.55997 40.092 1.29597 37.476H9.14397C9.35997 38.532 10.224 39.06 11.736 39.06C12.672 39.06 13.404 38.82 13.932 38.34C14.46 37.86 14.724 36.96 14.724 35.64V33.228C14.22 34.164 13.488 34.908 12.528 35.46C11.568 35.988 10.428 36.252 9.10797 36.252C7.52397 36.252 6.09597 35.844 4.82397 35.028C3.55197 34.188 2.54397 32.988 1.79997 31.428C1.07997 29.844 0.719971 27.984 0.719971 25.848C0.719971 23.712 1.07997 21.864 1.79997 20.304C2.54397 18.72 3.55197 17.52 4.82397 16.704C6.09597 15.864 7.52397 15.444 9.10797 15.444ZM14.724 25.848C14.724 24.768 14.448 23.928 13.896 23.328C13.344 22.728 12.636 22.428 11.772 22.428C10.908 22.428 10.2 22.728 9.64797 23.328C9.09597 23.928 8.81997 24.768 8.81997 25.848C8.81997 26.928 9.09597 27.768 9.64797 28.368C10.2 28.968 10.908 29.268 11.772 29.268C12.636 29.268 13.344 28.968 13.896 28.368C14.448 27.768 14.724 26.928 14.724 25.848ZM34.2608 19.44C35.0768 18.264 36.0728 17.328 37.2488 16.632C38.4248 15.912 39.6488 15.552 40.9208 15.552V24.084H38.6528C37.1408 24.084 36.0248 24.348 35.3048 24.876C34.6088 25.404 34.2608 26.34 34.2608 27.684V36H26.2688V15.696H34.2608V19.44ZM52.7214 36.252C50.6814 36.252 48.8454 35.832 47.2134 34.992C45.5814 34.152 44.2974 32.952 43.3614 31.392C42.4494 29.808 41.9934 27.96 41.9934 25.848C41.9934 23.736 42.4494 21.9 43.3614 20.34C44.2974 18.756 45.5814 17.544 47.2134 16.704C48.8454 15.864 50.6814 15.444 52.7214 15.444C54.7614 15.444 56.5974 15.864 58.2294 16.704C59.8614 17.544 61.1334 18.756 62.0454 20.34C62.9814 21.9 63.4494 23.736 63.4494 25.848C63.4494 27.96 62.9814 29.808 62.0454 31.392C61.1334 32.952 59.8614 34.152 58.2294 34.992C56.5974 35.832 54.7614 36.252 52.7214 36.252ZM52.7214 29.34C53.4654 29.34 54.0894 29.052 54.5934 28.476C55.0974 27.876 55.3494 27 55.3494 25.848C55.3494 24.696 55.0974 23.832 54.5934 23.256C54.0894 22.656 53.4654 22.356 52.7214 22.356C51.9774 22.356 51.3534 22.656 50.8494 23.256C50.3454 23.832 50.0934 24.696 50.0934 25.848C50.0934 27 50.3334 27.876 50.8134 28.476C51.3174 29.052 51.9534 29.34 52.7214 29.34ZM96.7762 15.696L91.9522 36H82.9522L80.5042 24.552L77.9122 36H68.9122L64.1242 15.696H72.0442L73.7362 28.044L76.3642 15.696H84.8962L87.6682 28.188L89.3962 15.696H96.7762Z" fill="#37474F"/>
<path d="M128.62 0.353567C127.231 -0.280391 120.307 0.683314 115.432 5.62834C107.764 13.7308 108.246 24.1034 108.246 24.1034C108.246 24.1034 108.016 25.1793 106.86 23.6614C104.34 20.6309 105.414 13.4626 105.528 12.4642C105.69 11.0601 104.797 11.0423 104.438 11.5163C95.9928 23.9668 104.212 33.7369 109.499 36.7625C115.688 40.3034 127.692 39.9642 132.178 29.2965C137.762 16.0111 130.36 1.147 128.62 0.353567Z" fill="#82B23F"/>
<path d="M128.62 0.353567C127.231 -0.280391 120.307 0.683314 115.432 5.62834C107.764 13.7308 108.246 24.1034 108.246 24.1034C108.246 24.1034 108.016 25.1793 106.86 23.6614C104.34 20.6309 105.414 13.4626 105.528 12.4642C105.69 11.0601 104.797 11.0423 104.438 11.5163C95.9928 23.9668 104.212 33.7369 109.499 36.7625C115.688 40.3034 127.692 39.9642 132.178 29.2965C137.762 16.0111 130.36 1.147 128.62 0.353567Z" fill="#4BAF52"/>
<path d="M128.809 11.9314C129.304 7.82324 129.197 3.88235 128.596 0.345586C127.161 -0.269299 120.283 0.707231 115.433 5.62826C107.764 13.7308 108.246 24.1034 108.246 24.1034C108.246 24.1034 108.016 25.1793 106.86 23.6614C104.34 20.6308 105.414 13.4625 105.528 12.4641C105.69 11.0601 104.797 11.0423 104.438 11.5162C99.3338 19.0409 100.32 25.5831 103.063 30.2529C105.755 32.9841 108.779 34.7439 111.544 35.0772C119.424 36.0272 127.153 25.6645 128.809 11.9314Z" fill="#5FE668"/>
<path d="M128.809 11.9314C129.304 7.8232 129.197 3.88231 128.595 0.345558C127.161 -0.269326 121.729 2.15987 116.878 7.08214C109.21 15.184 108.246 24.1033 108.246 24.1033C108.246 24.1033 108.016 25.1792 106.86 23.6613C104.34 20.6308 105.026 15.2533 105.141 14.2555C105.303 12.8508 104.409 12.8337 104.05 13.3076C98.9468 20.8323 100.321 25.5836 103.065 30.2528C105.756 32.984 108.78 34.7438 111.545 35.0771C119.424 36.0272 127.153 25.6645 128.809 11.9314Z" fill="#51C159"/>
</svg>
